<svg width="512" height="512" viewBox="0 0 512 512" fill="none" xmlns="http://www.w3.org/2000/svg">
<rect width="512" height="512" rx="256" fill="black"/>
<path d="M249.273 136.517C226.897 161.316 214.151 183.115 207.923 207.337C204.174 221.87 204.29 240.441 208.154 255.377C213.805 277.177 227.128 297.766 246.793 315.125C252.33 320.027 255.04 322.045 256.021 322.045C257.117 322.045 260.404 319.566 266.402 314.26C275.687 306.07 286.241 293.44 291.95 283.694C312.769 248.226 312.193 211.547 290.162 172.965C284.107 162.411 273.265 147.763 264.556 138.362C262.48 136.113 259.942 133.345 258.962 132.134C257.924 130.98 256.655 130 256.079 130C255.559 130 252.503 132.941 249.273 136.517Z" fill="white"/>
<path d="M394.72 161.546C394.086 164.314 389.415 173.715 386.704 177.752C373.901 197.014 353.255 208.26 327.303 210.163C323.208 210.451 319.748 210.855 319.632 210.971C319.459 211.144 319.748 215.469 320.267 220.659C323.381 252.609 318.018 279.369 304.638 297.881C294.603 311.838 280.877 321.238 263.345 326.082L259.193 327.236L265.825 326.89C303.254 324.987 331.801 313.971 353.947 292.921C367.5 280.118 379.611 260.106 386.416 239.287C390.049 228.157 393.625 211.951 395.009 200.013C396.508 186.979 396.854 159.989 395.585 159.989C395.355 159.989 394.951 160.681 394.72 161.546Z" fill="white"/>
<path d="M116.284 160.969C115.649 161.546 115.822 184.615 116.514 192.689C117.437 203.877 119.456 216.68 121.878 226.08C130.125 258.146 144.946 282.944 166.054 299.727C181.048 311.722 202.156 320.834 221.995 324.064C225.34 324.583 229.262 325.275 230.761 325.563C232.261 325.852 237.22 326.198 241.719 326.371L249.966 326.717L245.64 325.333C243.276 324.583 239.931 323.372 238.258 322.737C220.496 315.471 205.616 300.015 198.177 281.099C193.217 268.411 190.853 254.397 190.853 237.557C190.91 230.809 191.256 223.485 191.718 219.967C193.044 210.336 193.102 210.74 189.584 210.74C185.201 210.74 176.954 209.644 171.244 208.375C146.792 202.781 128.452 188.017 119.167 166.506C117.783 163.219 116.457 160.739 116.284 160.969Z" fill="white"/>
<path d="M45.0019 182.768C44.9442 183.057 46.213 188.42 47.7701 194.591C52.4415 213.219 58.7277 230.578 66.1673 245.63C71.646 256.761 78.5666 268.237 85.2565 277.349C91.3696 285.596 103.308 298.399 110.689 304.513C144.024 332.137 184.912 342.46 235.548 335.886L239.008 335.424L234.683 335.367C226.32 335.136 211.441 332.368 200.945 328.965C176.665 321.064 156.077 307.511 140.736 289.172C126.895 272.678 117.149 253.3 110.978 230.29L109.997 226.483L102.673 226.137C75.7984 224.811 54.6907 209.759 46.3283 185.94C45.6363 183.864 45.0019 182.422 45.0019 182.768Z" fill="white"/>
<path d="M466.521 183.173C466.464 184.787 462.369 193.784 459.774 197.936C450.892 212.239 437.628 221.178 419.865 224.869C417.501 225.33 412.541 225.907 408.792 226.138L401.929 226.484L401.295 228.848C395.874 250.129 386.185 270.487 374.362 285.308C352.909 312.414 321.824 329.715 286.298 334.387C282.492 334.906 277.821 335.367 275.918 335.425C272.976 335.598 273.553 335.713 279.666 336.348C309.194 339.462 330.878 337.789 354.351 330.58C357.522 329.6 360.406 328.62 360.694 328.389C361.04 328.158 362.309 327.639 363.578 327.235C367.038 326.14 379.611 319.796 385.205 316.278C395.932 309.588 407.812 299.669 416.001 290.672C438.147 266.219 455.737 230.924 464.964 192.285C466.983 183.922 467.213 182.481 466.867 182.481C466.694 182.481 466.521 182.827 466.521 183.173Z" fill="white"/>
<path d="M427.363 320.719C425.633 325.506 421.365 331.907 417.385 335.656C404.64 347.651 385.32 353.707 359.541 353.765C345.873 353.765 334.512 352.381 319.748 348.863C299.044 343.961 286.472 342.115 273.323 342.057C264.845 342.057 262.653 342.23 259.77 343.153L255.877 344.393V353.909V363.522V373.157V378.131V380.582V382.456L257.809 380.582C260.866 377.122 266.979 374.642 276.495 372.969C285.318 371.412 315.423 371.643 331.859 373.315C355.043 375.737 358.388 375.91 366.462 375.218C380.476 373.95 390.914 370.893 400.199 365.299C405.044 362.358 412.368 355.668 415.944 350.881C419 346.844 423.21 338.828 425.171 333.291C426.613 329.197 429.323 317.547 428.92 317.143C428.804 317.028 428.112 318.643 427.363 320.719Z" fill="white"/>
<path d="M84.4614 320.713C86.1923 325.485 90.4618 331.866 94.4429 335.603C107.194 347.561 126.522 353.597 152.312 353.654C165.986 353.654 177.352 352.275 192.123 348.768C212.836 343.881 225.413 342.042 238.568 341.984C247.049 341.984 249.242 342.157 252.127 343.076L255.877 344.393V363.351V382.456L254.088 380.386C251.03 376.937 244.915 374.465 235.395 372.798C226.567 371.246 196.45 371.476 180.006 373.143C156.812 375.557 153.466 375.73 145.389 375.04C131.368 373.775 120.925 370.728 111.636 365.152C106.79 362.22 99.4624 355.551 95.8853 350.78C92.8274 346.756 88.6155 338.765 86.6539 333.246C85.2115 329.164 82.4997 317.552 82.9036 317.149C83.019 317.034 83.7114 318.644 84.4614 320.713Z" fill="white"/>
</svg>
